<svg width="36" height="36" viewBox="0 0 36 36" fill="none" xmlns="http://www.w3.org/2000/svg">
<path d="M16.8696 3.64501C19.7769 3.41581 22.6853 4.07478 25.21 5.53471C27.7346 6.99464 29.7564 9.18672 31.008 11.8209C32.2595 14.4551 32.6817 17.4071 32.2187 20.2865C31.7557 23.1659 30.4294 25.8368 28.4152 27.9459C26.401 30.055 23.7939 31.5027 20.9389 32.0977C18.0838 32.6926 15.1154 32.4066 12.4265 31.2776C9.73756 30.1485 7.4548 28.2297 5.8803 25.7748C4.3058 23.32 3.51376 20.445 3.609 17.5302C3.6195 17.1722 3.77181 16.833 4.03241 16.5872C4.29301 16.3415 4.64056 16.2093 4.9986 16.2198C5.35664 16.2303 5.69585 16.3826 5.9416 16.6432C6.18734 16.9038 6.3195 17.2514 6.309 17.6094C6.21778 20.3686 7.10514 23.0711 8.81418 25.2391C10.5232 27.4072 12.9438 28.901 15.648 29.4566C18.3521 30.0122 21.1657 29.5937 23.591 28.2751C26.0164 26.9565 27.8974 24.8227 28.9014 22.2511C29.9054 19.6795 29.9678 16.8357 29.0774 14.2226C28.1871 11.6095 26.4014 9.39532 24.0361 7.9717C21.6709 6.54808 18.8784 6.00667 16.1525 6.44322C13.4265 6.87977 10.9428 8.26615 9.1404 10.3572L8.7732 10.8054H12.1518L12.3354 10.818C12.6599 10.861 12.9577 11.0204 13.1734 11.2666C13.3891 11.5128 13.5081 11.829 13.5081 12.1563C13.5081 12.4836 13.3891 12.7998 13.1734 13.046C12.9577 13.2922 12.6599 13.4516 12.3354 13.4946L12.1518 13.5054H5.8554L5.6718 13.4946C5.37967 13.4544 5.10872 13.3197 4.90036 13.111C4.69201 12.9024 4.55772 12.6312 4.518 12.339L4.5054 12.1554V4.95541L4.518 4.77361C4.55772 4.48142 4.69201 4.21026 4.90036 4.00158C5.10872 3.7929 5.37967 3.65818 5.6718 3.61801L5.8554 3.60721L6.039 3.61801C6.33114 3.65818 6.60209 3.7929 6.81044 4.00158C7.01879 4.21026 7.15309 4.48142 7.1928 4.77361L7.2054 4.95541L7.2036 8.47081C9.67449 5.66518 13.1422 3.9339 16.8696 3.64501ZM17.55 10.8054L17.7336 10.818C18.0257 10.8582 18.2967 10.9929 18.505 11.2016C18.7134 11.4103 18.8477 11.6814 18.8874 11.9736L18.9 12.1554V18L22.05 18.0018L22.2336 18.0144C22.5567 18.0589 22.8528 18.2188 23.0672 18.4647C23.2815 18.7105 23.3996 19.0256 23.3996 19.3518C23.3996 19.678 23.2815 19.9931 23.0672 20.239C22.8528 20.4848 22.5567 20.6448 22.2336 20.6892L22.05 20.7018H17.55L17.3664 20.6892C17.0745 20.6491 16.8038 20.5147 16.5955 20.3064C16.3871 20.098 16.2527 19.8273 16.2126 19.5354L16.2 19.35V12.1554L16.2126 11.9736C16.2523 11.6814 16.3866 11.4103 16.595 11.2016C16.8033 10.9929 17.0743 10.8582 17.3664 10.818L17.55 10.8072V10.8054Z" fill="black"/>
</svg>
