<svg width="120" height="120" viewBox="0 0 120 120" fill="none" xmlns="http://www.w3.org/2000/svg">
<path d="M103.125 13.125H16.875C14.8008 13.125 13.125 14.8008 13.125 16.875V103.125C13.125 105.199 14.8008 106.875 16.875 106.875H103.125C105.199 106.875 106.875 105.199 106.875 103.125V16.875C106.875 14.8008 105.199 13.125 103.125 13.125ZM99.375 99.375H77.8008V70.5703H89.9883L91.8164 56.4258H77.8008V47.3906C77.8008 43.2891 78.9375 40.5 84.8086 40.5H92.2969V27.8438C90.9961 27.668 86.5547 27.2812 81.375 27.2812C70.5703 27.2812 63.1758 33.8789 63.1758 45.9844V56.4141H50.9648V70.5586H63.1875V99.375H20.625V20.625H99.375V99.375Z" fill="black"/>
</svg>
