<svg width="101" height="101" viewBox="0 0 101 101" fill="none" xmlns="http://www.w3.org/2000/svg">
<path d="M67.4267 50.8531C67.4267 46.2654 65.8025 42.3485 62.554 39.1025C59.3055 35.8565 55.3856 34.2335 50.7944 34.2335C46.2031 34.2335 42.2833 35.8565 39.0347 39.1025C35.7862 42.3485 34.162 46.2654 34.162 50.8531C34.162 55.4407 35.7862 59.3576 39.0347 62.6036C42.2833 65.8496 46.2031 67.4726 50.7944 67.4726C55.3856 67.4726 59.3055 65.8496 62.554 62.6036C65.8025 59.3576 67.4267 55.4407 67.4267 50.8531ZM76.3926 50.8531C76.3926 57.951 73.9021 63.9886 68.921 68.9658C63.94 73.943 57.8978 76.4316 50.7944 76.4316C43.6909 76.4316 37.6487 73.943 32.6677 68.9658C27.6866 63.9886 25.1961 57.951 25.1961 50.8531C25.1961 43.7551 27.6866 37.7175 32.6677 32.7403C37.6487 27.7631 43.6909 25.2745 50.7944 25.2745C57.8978 25.2745 63.94 27.7631 68.921 32.7403C73.9021 37.7175 76.3926 43.7551 76.3926 50.8531ZM83.4094 24.2358C83.4094 25.8804 82.8247 27.287 81.6552 28.4556C80.4857 29.6242 79.0781 30.2084 77.4321 30.2084C75.7862 30.2084 74.3785 29.6242 73.2091 28.4556C72.0396 27.287 71.4549 25.8804 71.4549 24.2358C71.4549 22.5911 72.0396 21.1845 73.2091 20.016C74.3785 18.8474 75.7862 18.2631 77.4321 18.2631C79.0781 18.2631 80.4857 18.8474 81.6552 20.016C82.8247 21.1845 83.4094 22.5911 83.4094 24.2358ZM50.7944 9.95336C50.4912 9.95336 48.8344 9.94254 45.8241 9.9209C42.8138 9.89926 40.5291 9.89926 38.9698 9.9209C37.4105 9.94254 35.3206 10.0075 32.7001 10.1157C30.0797 10.2239 27.849 10.4403 26.0082 10.7649C24.1674 11.0895 22.6189 11.4898 21.3628 11.9659C19.1972 12.8315 17.2914 14.0866 15.6455 15.7313C13.9995 17.3759 12.7435 19.2802 11.8772 21.4442C11.4007 22.6994 11.0001 24.2466 10.6752 26.086C10.3504 27.9254 10.1338 30.1543 10.0255 32.7728C9.91725 35.3912 9.85228 37.4795 9.83062 39.0376C9.80897 40.5957 9.80897 42.8787 9.83062 45.8867C9.85228 48.8946 9.86311 50.5501 9.86311 50.8531C9.86311 51.156 9.85228 52.8115 9.83062 55.8194C9.80897 58.8274 9.80897 61.1104 9.83062 62.6685C9.85228 64.2266 9.91725 66.3149 10.0255 68.9333C10.1338 71.5518 10.3504 73.7807 10.6752 75.6201C11.0001 77.4595 11.4007 79.0067 11.8772 80.2619C12.7435 82.4259 13.9995 84.3302 15.6455 85.9748C17.2914 87.6195 19.1972 88.8746 21.3628 89.7402C22.6189 90.2163 24.1674 90.6166 26.0082 90.9412C27.849 91.2658 30.0797 91.4822 32.7001 91.5904C35.3206 91.6986 37.4105 91.7636 38.9698 91.7852C40.5291 91.8068 42.8138 91.8068 45.8241 91.7852C48.8344 91.7636 50.4912 91.7527 50.7944 91.7527C51.0975 91.7527 52.7543 91.7636 55.7646 91.7852C58.7749 91.8068 61.0596 91.8068 62.6189 91.7852C64.1782 91.7636 66.2681 91.6986 68.8886 91.5904C71.509 91.4822 73.7397 91.2658 75.5805 90.9412C77.4213 90.6166 78.9698 90.2163 80.2259 89.7402C82.3915 88.8746 84.2973 87.6195 85.9432 85.9748C87.5892 84.3302 88.8452 82.4259 89.7115 80.2619C90.188 79.0067 90.5886 77.4595 90.9135 75.6201C91.2383 73.7807 91.4549 71.5518 91.5632 68.9333C91.6715 66.3149 91.7364 64.2266 91.7581 62.6685C91.7797 61.1104 91.7797 58.8274 91.7581 55.8194C91.7364 52.8115 91.7256 51.156 91.7256 50.8531C91.7256 50.5501 91.7364 48.8946 91.7581 45.8867C91.7797 42.8787 91.7797 40.5957 91.7581 39.0376C91.7364 37.4795 91.6715 35.3912 91.5632 32.7728C91.4549 30.1543 91.2383 27.9254 90.9135 26.086C90.5886 24.2466 90.188 22.6994 89.7115 21.4442C88.8452 19.2802 87.5892 17.3759 85.9432 15.7313C84.2973 14.0866 82.3915 12.8315 80.2259 11.9659C78.9698 11.4898 77.4213 11.0895 75.5805 10.7649C73.7397 10.4403 71.509 10.2239 68.8886 10.1157C66.2681 10.0075 64.1782 9.94254 62.6189 9.9209C61.0596 9.89926 58.7749 9.89926 55.7646 9.9209C52.7543 9.94254 51.0975 9.95336 50.7944 9.95336ZM100.691 50.8531C100.691 60.7642 100.583 67.6241 100.367 71.4327C99.9335 80.435 97.2481 87.4031 92.3103 92.337C87.3726 97.2709 80.3991 99.9543 71.3899 100.387C67.5783 100.604 60.7131 100.712 50.7944 100.712C40.8756 100.712 34.0104 100.604 30.1988 100.387C21.1896 99.9543 14.2161 97.2709 9.27838 92.337C4.34064 87.4031 1.6552 80.435 1.22207 71.4327C1.0055 67.6241 0.897217 60.7642 0.897217 50.8531C0.897217 40.9419 1.0055 34.082 1.22207 30.2734C1.6552 21.2711 4.34064 14.303 9.27838 9.36908C14.2161 4.43515 21.1896 1.75179 30.1988 1.31899C34.0104 1.10258 40.8756 0.994385 50.7944 0.994385C60.7131 0.994385 67.5783 1.10258 71.3899 1.31899C80.3991 1.75179 87.3726 4.43515 92.3103 9.36908C97.2481 14.303 99.9335 21.2711 100.367 30.2734C100.583 34.082 100.691 40.9419 100.691 50.8531Z" fill="black"/>
</svg>
