<svg width="121" height="120" viewBox="0 0 121 120" fill="none" xmlns="http://www.w3.org/2000/svg">
<path d="M52.548 33.0609L39.2613 66.6164L26.1363 33.0609H3.61987L28.4238 91.4508L19.3839 112.5H41.455L74.4808 33.0609H52.548ZM77.2511 64.8867C74.5523 64.8867 71.9142 65.687 69.6702 67.1864C67.4262 68.6857 65.6773 70.8168 64.6445 73.3102C63.6117 75.8036 63.3415 78.5472 63.868 81.1941C64.3945 83.841 65.6941 86.2724 67.6024 88.1807C69.5108 90.0891 71.9421 91.3886 74.5891 91.9152C77.236 92.4417 79.9796 92.1714 82.473 91.1387C84.9663 90.1059 87.0974 88.3569 88.5968 86.113C90.0962 83.869 90.8964 81.2308 90.8964 78.532C90.8964 76.7401 90.5435 74.9657 89.8578 73.3102C89.172 71.6547 88.1669 70.1504 86.8998 68.8833C85.6327 67.6163 84.1285 66.6111 82.473 65.9254C80.8174 65.2397 79.0431 64.8867 77.2511 64.8867ZM92.6168 7.5L70.8199 59.8758H95.38L117.09 7.5H92.6168Z" fill="black"/>
</svg>
