<svg width="36" height="36" viewBox="0 0 36 36" fill="none" xmlns="http://www.w3.org/2000/svg">
<path d="M16.43 16.69C15.0455 16.69 13.6921 16.2795 12.541 15.5103C11.3898 14.7411 10.4926 13.6479 9.96282 12.3688C9.43301 11.0897 9.29439 9.68224 9.56448 8.32437C9.83458 6.96651 10.5013 5.71923 11.4802 4.74026C12.4592 3.76129 13.7065 3.09461 15.0643 2.82451C16.4222 2.55441 17.8297 2.69304 19.1088 3.22285C20.3878 3.75266 21.4811 4.64987 22.2503 5.80101C23.0194 6.95216 23.43 8.30554 23.43 9.69001C23.43 11.5465 22.6925 13.327 21.3797 14.6398C20.067 15.9525 18.2865 16.69 16.43 16.69ZM16.43 4.77001C15.4411 4.77001 14.4744 5.06325 13.6521 5.61266C12.8299 6.16206 12.189 6.94296 11.8106 7.85659C11.4321 8.77022 11.3331 9.77555 11.5261 10.7455C11.719 11.7154 12.1952 12.6063 12.8944 13.3055C13.5937 14.0048 14.4846 14.481 15.4545 14.6739C16.4244 14.8669 17.4298 14.7678 18.3434 14.3894C19.257 14.011 20.0379 13.3701 20.5873 12.5479C21.1367 11.7256 21.43 10.7589 21.43 9.77001C21.43 9.1134 21.3007 8.46322 21.0494 7.85659C20.7981 7.24996 20.4298 6.69876 19.9655 6.23447C19.5012 5.77018 18.95 5.40188 18.3434 5.15061C17.7368 4.89933 17.0866 4.77001 16.43 4.77001ZM22 17.9C16.5884 16.6823 10.927 17.2688 5.87998 19.57C5.18587 19.9016 4.60024 20.4235 4.19128 21.075C3.78232 21.7265 3.56685 22.4808 3.56998 23.25V29.2C3.56998 29.3313 3.59585 29.4614 3.6461 29.5827C3.69636 29.704 3.77001 29.8143 3.86287 29.9071C3.95573 30 4.06597 30.0736 4.1873 30.1239C4.30862 30.1741 4.43866 30.2 4.56998 30.2C4.7013 30.2 4.83134 30.1741 4.95266 30.1239C5.07399 30.0736 5.18423 30 5.27709 29.9071C5.36995 29.8143 5.4436 29.704 5.49386 29.5827C5.54411 29.4614 5.56998 29.3313 5.56998 29.2V23.25C5.56127 22.8607 5.6664 22.4773 5.87246 22.1469C6.07852 21.8165 6.37655 21.5535 6.72998 21.39C9.77025 19.9862 13.0813 19.266 16.43 19.28C18.3063 19.2776 20.1762 19.4992 22 19.94V17.9ZM22.14 27.41H28.28V28.81H22.14V27.41Z" fill="black"/>
<path d="M33.17 21.47H28V23.47H32.17V31.84H18V23.47H24.3V23.89C24.3 24.1552 24.4054 24.4096 24.5929 24.5971C24.7804 24.7846 25.0348 24.89 25.3 24.89C25.5652 24.89 25.8196 24.7846 26.0071 24.5971C26.1946 24.4096 26.3 24.1552 26.3 23.89V20C26.3 19.7348 26.1946 19.4804 26.0071 19.2929C25.8196 19.1054 25.5652 19 25.3 19C25.0348 19 24.7804 19.1054 24.5929 19.2929C24.4054 19.4804 24.3 19.7348 24.3 20V21.47H17C16.7348 21.47 16.4804 21.5754 16.2929 21.7629C16.1054 21.9504 16 22.2048 16 22.47V32.84C16 33.1052 16.1054 33.3596 16.2929 33.5471C16.4804 33.7346 16.7348 33.84 17 33.84H33.17C33.4352 33.84 33.6896 33.7346 33.8771 33.5471C34.0646 33.3596 34.17 33.1052 34.17 32.84V22.47C34.17 22.2048 34.0646 21.9504 33.8771 21.7629C33.6896 21.5754 33.4352 21.47 33.17 21.47Z" fill="black"/>
</svg>
