<svg width="36" height="36" viewBox="0 0 36 36" fill="none" xmlns="http://www.w3.org/2000/svg">
<path d="M14.0625 11.1691H16.6605V23.0625C16.6605 23.2172 16.7871 23.3437 16.9418 23.3437H19.0512C19.2059 23.3437 19.3324 23.2172 19.3324 23.0625V11.1691H21.9375C22.173 11.1691 22.3031 10.8984 22.159 10.7156L18.2215 5.73047C18.1952 5.69685 18.1616 5.66967 18.1232 5.65097C18.0848 5.63228 18.0427 5.62256 18 5.62256C17.9573 5.62256 17.9152 5.63228 17.8768 5.65097C17.8384 5.66967 17.8048 5.69685 17.7785 5.73047L13.841 10.7121C13.6969 10.8984 13.827 11.1691 14.0625 11.1691ZM30.8672 22.0078H28.7578C28.6031 22.0078 28.4766 22.1344 28.4766 22.289V27.7031H7.52344V22.289C7.52344 22.1344 7.39687 22.0078 7.24219 22.0078H5.13281C4.97812 22.0078 4.85156 22.1344 4.85156 22.289V29.25C4.85156 29.8722 5.3543 30.375 5.97656 30.375H30.0234C30.6457 30.375 31.1484 29.8722 31.1484 29.25V22.289C31.1484 22.1344 31.0219 22.0078 30.8672 22.0078Z" fill="black"/>
</svg>
