<svg width="325" height="122" viewBox="0 0 325 122" fill="none" xmlns="http://www.w3.org/2000/svg">
<rect width="51.9765" height="24.2069" transform="matrix(0.863082 -0.505063 0.517566 0.855643 31.6866 73.3789)" fill="#0093AB"/>
<rect width="51.9546" height="24.2166" transform="matrix(-0.849196 -0.528077 0.540717 -0.841205 44.1196 93.9671)" fill="#0093AB"/>
<rect width="51.9773" height="24.2065" transform="matrix(-0.863602 0.504174 -0.51667 -0.856185 57.9491 20.7252)" fill="#006778"/>
<rect width="51.9538" height="24.217" transform="matrix(0.848652 0.528952 -0.541596 0.840639 45.5378 0.124359)" fill="#006778"/>
<path d="M93.4673 69.803V36.203H107.291C110.267 36.203 112.811 36.683 114.923 37.643C117.067 38.603 118.715 39.979 119.867 41.771C121.019 43.563 121.595 45.691 121.595 48.155C121.595 50.619 121.019 52.747 119.867 54.539C118.715 56.299 117.067 57.659 114.923 58.619C112.811 59.547 110.267 60.011 107.291 60.011H96.9233L99.7073 57.179V69.803H93.4673ZM115.451 69.803L106.955 57.611H113.627L122.171 69.803H115.451ZM99.7073 57.851L96.9233 54.875H107.003C109.755 54.875 111.819 54.283 113.195 53.099C114.603 51.915 115.307 50.267 115.307 48.155C115.307 46.011 114.603 44.363 113.195 43.211C111.819 42.059 109.755 41.483 107.003 41.483H96.9233L99.7073 38.411V57.851ZM138.849 70.139C136.673 70.139 134.753 69.739 133.089 68.939C131.425 68.107 130.129 66.859 129.201 65.195C128.273 63.499 127.809 61.371 127.809 58.811V44.171H133.809V57.995C133.809 60.299 134.321 62.027 135.345 63.179C136.401 64.299 137.889 64.859 139.809 64.859C141.217 64.859 142.433 64.571 143.457 63.995C144.513 63.419 145.329 62.555 145.905 61.403C146.513 60.251 146.817 58.827 146.817 57.131V44.171H152.817V69.803H147.105V62.891L148.113 65.003C147.249 66.667 145.985 67.947 144.321 68.843C142.657 69.707 140.833 70.139 138.849 70.139ZM174.881 70.139C172.705 70.139 170.769 69.659 169.073 68.699C167.377 67.739 166.033 66.299 165.041 64.379C164.081 62.427 163.601 59.963 163.601 56.987C163.601 53.979 164.097 51.515 165.089 49.595C166.113 47.675 167.473 46.251 169.169 45.323C170.897 44.363 172.801 43.883 174.881 43.883C177.409 43.883 179.633 44.427 181.553 45.515C183.505 46.603 185.041 48.123 186.161 50.075C187.313 52.027 187.889 54.331 187.889 56.987C187.889 59.643 187.313 61.947 186.161 63.899C185.041 65.851 183.505 67.387 181.553 68.507C179.633 69.595 177.409 70.139 174.881 70.139ZM160.673 69.803V34.187H166.673V50.123L166.193 56.939L166.385 63.755V69.803H160.673ZM174.209 65.003C175.649 65.003 176.929 64.683 178.049 64.043C179.201 63.403 180.113 62.475 180.785 61.259C181.457 60.043 181.793 58.619 181.793 56.987C181.793 55.323 181.457 53.899 180.785 52.715C180.113 51.499 179.201 50.571 178.049 49.931C176.929 49.291 175.649 48.971 174.209 48.971C172.769 48.971 171.473 49.291 170.321 49.931C169.169 50.571 168.257 51.499 167.585 52.715C166.913 53.899 166.577 55.323 166.577 56.987C166.577 58.619 166.913 60.043 167.585 61.259C168.257 62.475 169.169 63.403 170.321 64.043C171.473 64.683 172.769 65.003 174.209 65.003ZM209.043 69.803V64.619L208.707 63.515V54.443C208.707 52.683 208.179 51.323 207.123 50.363C206.067 49.371 204.467 48.875 202.323 48.875C200.883 48.875 199.459 49.099 198.051 49.547C196.675 49.995 195.507 50.619 194.547 51.419L192.195 47.051C193.571 45.995 195.203 45.211 197.091 44.699C199.011 44.155 200.995 43.883 203.043 43.883C206.755 43.883 209.619 44.779 211.635 46.571C213.683 48.331 214.707 51.067 214.707 54.779V69.803H209.043ZM200.979 70.139C199.059 70.139 197.379 69.819 195.939 69.179C194.499 68.507 193.379 67.595 192.579 66.443C191.811 65.259 191.427 63.931 191.427 62.459C191.427 61.019 191.763 59.723 192.435 58.571C193.139 57.419 194.275 56.507 195.843 55.835C197.411 55.163 199.491 54.827 202.083 54.827H209.523V58.811H202.515C200.467 58.811 199.091 59.147 198.387 59.819C197.683 60.459 197.331 61.259 197.331 62.219C197.331 63.307 197.763 64.171 198.627 64.811C199.491 65.451 200.691 65.771 202.227 65.771C203.699 65.771 205.011 65.435 206.163 64.763C207.347 64.091 208.195 63.099 208.707 61.787L209.715 65.387C209.139 66.891 208.099 68.059 206.595 68.891C205.123 69.723 203.251 70.139 200.979 70.139ZM236.615 70.139C234.439 70.139 232.503 69.659 230.807 68.699C229.111 67.739 227.767 66.299 226.775 64.379C225.815 62.427 225.335 59.963 225.335 56.987C225.335 53.979 225.831 51.515 226.823 49.595C227.847 47.675 229.207 46.251 230.903 45.323C232.631 44.363 234.535 43.883 236.615 43.883C239.143 43.883 241.367 44.427 243.287 45.515C245.239 46.603 246.775 48.123 247.895 50.075C249.047 52.027 249.623 54.331 249.623 56.987C249.623 59.643 249.047 61.947 247.895 63.899C246.775 65.851 245.239 67.387 243.287 68.507C241.367 69.595 239.143 70.139 236.615 70.139ZM222.407 69.803V34.187H228.407V50.123L227.927 56.939L228.119 63.755V69.803H222.407ZM235.943 65.003C237.383 65.003 238.663 64.683 239.783 64.043C240.935 63.403 241.847 62.475 242.519 61.259C243.191 60.043 243.527 58.619 243.527 56.987C243.527 55.323 243.191 53.899 242.519 52.715C241.847 51.499 240.935 50.571 239.783 49.931C238.663 49.291 237.383 48.971 235.943 48.971C234.503 48.971 233.207 49.291 232.055 49.931C230.903 50.571 229.991 51.499 229.319 52.715C228.647 53.899 228.311 55.323 228.311 56.987C228.311 58.619 228.647 60.043 229.319 61.259C229.991 62.475 230.903 63.403 232.055 64.043C233.207 64.683 234.503 65.003 235.943 65.003ZM266.833 70.139C264.209 70.139 261.873 69.579 259.825 68.459C257.777 67.307 256.161 65.739 254.977 63.755C253.793 61.771 253.201 59.515 253.201 56.987C253.201 54.427 253.793 52.171 254.977 50.219C256.161 48.235 257.777 46.683 259.825 45.563C261.873 44.443 264.209 43.883 266.833 43.883C269.489 43.883 271.841 44.443 273.889 45.563C275.969 46.683 277.585 48.219 278.737 50.171C279.921 52.123 280.513 54.395 280.513 56.987C280.513 59.515 279.921 61.771 278.737 63.755C277.585 65.739 275.969 67.307 273.889 68.459C271.841 69.579 269.489 70.139 266.833 70.139ZM266.833 65.003C268.305 65.003 269.617 64.683 270.769 64.043C271.921 63.403 272.817 62.475 273.457 61.259C274.129 60.043 274.465 58.619 274.465 56.987C274.465 55.323 274.129 53.899 273.457 52.715C272.817 51.499 271.921 50.571 270.769 49.931C269.617 49.291 268.321 48.971 266.881 48.971C265.409 48.971 264.097 49.291 262.945 49.931C261.825 50.571 260.929 51.499 260.257 52.715C259.585 53.899 259.249 55.323 259.249 56.987C259.249 58.619 259.585 60.043 260.257 61.259C260.929 62.475 261.825 63.403 262.945 64.043C264.097 64.683 265.393 65.003 266.833 65.003ZM281.903 69.803L293.183 55.115L293.087 58.331L282.335 44.171H289.007L296.543 54.251H293.999L301.583 44.171H308.063L297.215 58.331L297.263 55.115L308.495 69.803H301.727L293.807 59.099L296.303 59.435L288.527 69.803H281.903Z" fill="black"/>
</svg>
